# xmcd
#
# Track frame offsets:
#	150
#	9358
#	15750
#	22142
#	33402
#	39999
#	46596
#	57634
#	64198
#	70762
#	82018
#	88520
#	95022
#	106154
#	110506
#	114858
#	121905
#	128310
#	134715
#	145792
#	149733
#	153674
#	159824
#	166105
#	172386
#	183349
#	189670
#	195991
#	206943
#	213398
#	219853
#	231026
#	236582
#	242138
#	251346
#	257863
#	264380
#
# Disc length: 3668 seconds
#
# Revision: 1
# Processed by: cddbd v1.5.2PL0 Copyright (c) Steve Scherf et al.
# Submitted via: audiograbber 1.83.01
#
DISCID=020e5225
DTITLE=Rick Williams - Jam Tunes for Bluegrass Mandolin Disc 1
DYEAR=2005
DGENRE=Bluegrass
TTITLE0=Introduction
TTITLE1=Old Joe Clark 1
TTITLE2=Old Joe Clark 2
TTITLE3=Old Joe Clark 3
TTITLE4=Arkansas Traveler 1
TTITLE5=Arkansas Traveler 2
TTITLE6=Arkansas Traveler 3
TTITLE7=Turkey In The Straw 1
TTITLE8=Turkey In The Straw 2
TTITLE9=Turkey In The Straw 3
TTITLE10=Redwing 1
TTITLE11=Redwing 2
TTITLE12=Redwing 3
TTITLE13=Wildwood Flower 1
TTITLE14=Wildwood Flower 2
TTITLE15=Wildwood Flower 3
TTITLE16=Blackberry Blossom 1
TTITLE17=Blackberry Blossom 2
TTITLE18=Blackberry Blossom 3
TTITLE19=8th Of January 1
TTITLE20=8th Of January 2
TTITLE21=8th Of January 3
TTITLE22=Bill Cheatham 1
TTITLE23=Bill Cheatham 2
TTITLE24=Bill Cheatham 3
TTITLE25=Billy In The Low Ground 1
TTITLE26=Billy In The Low Ground 2
TTITLE27=Billy In The Low Ground 3
TTITLE28=Cattle In The Cane 1
TTITLE29=Cattle In The Cane 2
TTITLE30=Cattle In The Cane 3
TTITLE31=Fire On The Mountain 1
TTITLE32=Fire On The Mountain 2
TTITLE33=Fire On The Mountain 3
TTITLE34=Fisher's Hornpipe 1
TTITLE35=Fisher's Hornpipe 2
TTITLE36=Fisher's Hornpipe 3
EXTD=
EXTT0=
EXTT1=
EXTT2=
EXTT3=
EXTT4=
EXTT5=
EXTT6=
EXTT7=
EXTT8=
EXTT9=
EXTT10=
EXTT11=
EXTT12=
EXTT13=
EXTT14=
EXTT15=
EXTT16=
EXTT17=
EXTT18=
EXTT19=
EXTT20=
EXTT21=
EXTT22=
EXTT23=
EXTT24=
EXTT25=
EXTT26=
EXTT27=
EXTT28=
EXTT29=
EXTT30=
EXTT31=
EXTT32=
EXTT33=
EXTT34=
EXTT35=
EXTT36=
PLAYORDER=
